<svg width="46" height="47" viewBox="0 0 46 47" fill="none" xmlns="http://www.w3.org/2000/svg">
<path d="M23 46.8394C35.7025 46.8394 46 36.5704 46 23.9031C46 11.2357 35.7025 0.966797 23 0.966797C10.2975 0.966797 0 11.2357 0 23.9031C0 36.5704 10.2975 46.8394 23 46.8394Z" fill="#FA6900"/>
<path d="M21.5022 14.8966L19.1348 12.5357C18.9335 12.3349 18.6945 12.1756 18.4315 12.0669C18.1685 11.9583 17.8866 11.9023 17.6019 11.9023C17.3172 11.9023 17.0352 11.9583 16.7722 12.0669C16.5092 12.1756 16.2702 12.3349 16.0689 12.5357L13.5931 15.0046C13.3918 15.2054 13.232 15.4437 13.1231 15.706C13.0141 15.9683 12.958 16.2494 12.958 16.5333C12.958 16.8172 13.0141 17.0984 13.1231 17.3607C13.232 17.623 13.3918 17.8613 13.5931 18.062L15.9605 20.4205C16.1618 20.6213 16.4008 20.7806 16.6638 20.8892C16.9269 20.9979 17.2088 21.0538 17.4935 21.0538C17.7782 21.0538 18.0601 20.9979 18.3231 20.8892C18.5861 20.7806 18.8251 20.6213 19.0264 20.4205L21.5022 17.9515C21.9081 17.5462 22.1361 16.9969 22.1361 16.4241C22.1361 15.8512 21.9081 15.3019 21.5022 14.8966ZM21.194 17.6441L19.6454 19.1908V18.5544C19.6453 18.2423 19.5505 17.9376 19.3734 17.6804C19.1962 17.4231 18.9451 17.2254 18.6531 17.1133C18.3406 17.3665 17.9503 17.5047 17.5477 17.5047C17.1451 17.5047 16.7547 17.3665 16.4422 17.1133C16.1502 17.2254 15.8991 17.4231 15.722 17.6804C15.5448 17.9376 15.45 18.2423 15.45 18.5544V19.2437C15.4487 19.2636 15.4487 19.2837 15.45 19.3037L13.8942 17.7522C13.57 17.4284 13.388 16.9896 13.388 16.5321C13.388 16.0746 13.57 15.6358 13.8942 15.3121L16.3772 12.8431C16.5378 12.6824 16.7287 12.5549 16.9389 12.4679C17.149 12.3809 17.3743 12.3361 17.6019 12.3361C17.8294 12.3361 18.0547 12.3809 18.2649 12.4679C18.475 12.5549 18.6659 12.6824 18.8265 12.8431L21.194 15.204C21.5181 15.5277 21.7001 15.9666 21.7001 16.4241C21.7001 16.8816 21.5181 17.3204 21.194 17.6441Z" fill="white"/>
<path d="M17.5478 14.2462C17.2587 14.2432 16.9749 14.323 16.73 14.4761C16.4851 14.6292 16.2894 14.8491 16.1661 15.1099C16.0429 15.3706 15.9973 15.6611 16.0347 15.947C16.0721 16.2328 16.191 16.5019 16.3773 16.7223C16.4085 16.7606 16.4423 16.7967 16.4784 16.8304C16.5122 16.864 16.5483 16.8953 16.5844 16.9265C16.6308 16.9644 16.6799 16.9989 16.7313 17.0298L16.8253 17.0874C16.9113 17.133 17.0016 17.17 17.095 17.1979C17.386 17.2876 17.6975 17.2876 17.9885 17.1979C18.0817 17.1696 18.172 17.1326 18.2582 17.0874L18.3522 17.0298C18.4028 16.9989 18.4511 16.9644 18.4967 16.9265C18.5352 16.8953 18.5689 16.864 18.605 16.8304C18.6398 16.7961 18.6728 16.76 18.7038 16.7223C18.8882 16.5025 19.006 16.2349 19.0434 15.9507C19.0808 15.6666 19.0363 15.3777 18.915 15.1179C18.7937 14.858 18.6007 14.6381 18.3585 14.4837C18.1164 14.3293 17.8352 14.2469 17.5478 14.2462Z" fill="white"/>
<path d="M32.4075 14.8966L30.0401 12.5357C29.8388 12.3349 29.5998 12.1756 29.3368 12.0669C29.0738 11.9583 28.7918 11.9023 28.5071 11.9023C28.2224 11.9023 27.9405 11.9583 27.6775 12.0669C27.4145 12.1756 27.1755 12.3349 26.9742 12.5357L24.4984 15.0046C24.297 15.2054 24.1373 15.4437 24.0283 15.706C23.9194 15.9683 23.8633 16.2494 23.8633 16.5333C23.8633 16.8172 23.9194 17.0984 24.0283 17.3607C24.1373 17.623 24.297 17.8613 24.4984 18.062L26.8658 20.4205C27.0671 20.6213 27.3061 20.7806 27.5691 20.8892C27.8321 20.9979 28.114 21.0538 28.3988 21.0538C28.6835 21.0538 28.9654 20.9979 29.2284 20.8892C29.4914 20.7806 29.7304 20.6213 29.9317 20.4205L32.4075 17.9491C32.8127 17.5439 33.0402 16.9951 33.0402 16.4229C33.0402 15.8506 32.8127 15.3018 32.4075 14.8966ZM32.0992 17.6441L30.5506 19.1908V18.5544C30.5506 18.2423 30.4558 17.9376 30.2786 17.6804C30.1015 17.4231 29.8504 17.2254 29.5584 17.1133C29.2459 17.3665 28.8555 17.5047 28.4529 17.5047C28.0503 17.5047 27.66 17.3665 27.3475 17.1133C27.0555 17.2254 26.8044 17.4231 26.6272 17.6804C26.4501 17.9376 26.3553 18.2423 26.3552 18.5544V19.2437C26.3539 19.2636 26.3539 19.2837 26.3552 19.3037L24.8067 17.7522C24.4825 17.4284 24.3005 16.9896 24.3005 16.5321C24.3005 16.0746 24.4825 15.6358 24.8067 15.3121L27.2825 12.8431C27.4431 12.6824 27.634 12.5549 27.8441 12.4679C28.0543 12.3809 28.2796 12.3361 28.5071 12.3361C28.7347 12.3361 28.96 12.3809 29.1701 12.4679C29.3803 12.5549 29.5711 12.6824 29.7318 12.8431L32.0992 15.204C32.4234 15.5277 32.6054 15.9666 32.6054 16.4241C32.6054 16.8816 32.4234 17.3204 32.0992 17.6441Z" fill="white"/>
<path d="M28.4531 14.2481C28.1647 14.2465 27.8818 14.3273 27.638 14.4809C27.3942 14.6345 27.1996 14.8546 27.0772 15.1151C26.9548 15.3755 26.9098 15.6655 26.9475 15.9507C26.9852 16.2358 27.104 16.5043 27.2898 16.7242C27.3209 16.7619 27.3538 16.798 27.3886 16.8323C27.4247 16.8659 27.4584 16.8972 27.497 16.9284C27.5434 16.9663 27.5925 17.0008 27.6439 17.0316L27.7378 17.0893C27.8238 17.1349 27.9142 17.1719 28.0075 17.1998C28.1519 17.2442 28.302 17.2669 28.4531 17.267C28.6049 17.2669 28.7559 17.2443 28.901 17.1998C28.9942 17.1715 29.0846 17.1345 29.1708 17.0893L29.2623 17.0316C29.3137 17.0008 29.3628 16.9663 29.4092 16.9284C29.4462 16.8982 29.4816 16.8662 29.5152 16.8323C29.5514 16.7986 29.5852 16.7625 29.6163 16.7242C29.8012 16.504 29.9191 16.2356 29.9562 15.9508C29.9933 15.666 29.9482 15.3766 29.826 15.1165C29.7038 14.8564 29.5097 14.6365 29.2665 14.4827C29.0233 14.3288 28.7411 14.2474 28.4531 14.2481Z" fill="white"/>
<path d="M26.9549 28.3809L24.5874 26.0201C24.3861 25.8193 24.1472 25.66 23.8841 25.5513C23.6211 25.4427 23.3392 25.3867 23.0545 25.3867C22.7698 25.3867 22.4879 25.4427 22.2248 25.5513C21.9618 25.66 21.7228 25.8193 21.5216 26.0201L19.0458 28.489C18.8444 28.6897 18.6847 28.9281 18.5757 29.1904C18.4667 29.4527 18.4106 29.7338 18.4106 30.0177C18.4106 30.3016 18.4667 30.5828 18.5757 30.8451C18.6847 31.1074 18.8444 31.3457 19.0458 31.5464L21.4132 33.9073C21.6145 34.1081 21.8534 34.2673 22.1165 34.376C22.3795 34.4847 22.6614 34.5406 22.9461 34.5406C23.2308 34.5406 23.5127 34.4847 23.7758 34.376C24.0388 34.2673 24.2778 34.1081 24.479 33.9073L26.9549 31.4383C27.1562 31.2376 27.3159 30.9993 27.4249 30.737C27.5339 30.4747 27.59 30.1935 27.59 29.9096C27.59 29.6257 27.5339 29.3446 27.4249 29.0823C27.3159 28.82 27.1562 28.5817 26.9549 28.3809ZM26.6466 31.1309L25.098 32.6704V32.0339C25.0973 31.7221 25.0022 31.4176 24.8252 31.1605C24.6481 30.9034 24.3974 30.7056 24.1057 30.5929C23.7932 30.8461 23.4029 30.9842 23.0003 30.9842C22.5977 30.9842 22.2074 30.8461 21.8949 30.5929C21.603 30.7053 21.3521 30.9031 21.175 31.1602C20.9979 31.4174 20.903 31.722 20.9026 32.0339V32.7232C20.9014 32.744 20.9014 32.7649 20.9026 32.7857L19.354 31.2294C19.0303 30.9049 18.8486 30.4658 18.8486 30.0081C18.8486 29.5504 19.0303 29.1113 19.354 28.7868L21.8298 26.3179C22.1552 25.9951 22.5955 25.8139 23.0545 25.8139C23.5135 25.8139 23.9538 25.9951 24.2792 26.3179L26.6466 28.6788C26.8083 28.8396 26.9366 29.0307 27.0242 29.2411C27.1117 29.4515 27.1568 29.677 27.1568 29.9048C27.1568 30.1326 27.1117 30.3582 27.0242 30.5686C26.9366 30.7789 26.8083 30.97 26.6466 31.1309Z" fill="white"/>
<path d="M23.0004 27.7324C22.7378 27.7332 22.4798 27.802 22.2519 27.9321C22.024 28.0622 21.8339 28.2492 21.7003 28.4747C21.5668 28.7002 21.4943 28.9565 21.4899 29.2183C21.4856 29.4802 21.5497 29.7387 21.6758 29.9684C21.7234 30.0535 21.7791 30.1339 21.842 30.2086L21.9407 30.3167L22.0491 30.4127C22.0948 30.4487 22.1454 30.4824 22.196 30.516C22.2466 30.5496 22.2562 30.5544 22.2899 30.5712C22.3759 30.6176 22.4662 30.6554 22.5597 30.6841C22.704 30.7286 22.8541 30.7513 23.0052 30.7514C23.157 30.7513 23.308 30.7286 23.4532 30.6841C23.5464 30.655 23.6367 30.6172 23.7229 30.5712L23.8168 30.516C23.8674 30.4824 23.9156 30.4487 23.9613 30.4127C24.0071 30.3767 24.0336 30.3503 24.0697 30.3167L24.1684 30.2086C24.2313 30.1339 24.287 30.0535 24.3346 29.9684C24.4609 29.7383 24.525 29.4794 24.5204 29.2171C24.5159 28.9548 24.443 28.6983 24.3088 28.4726C24.1747 28.247 23.9839 28.0601 23.7553 27.9303C23.5268 27.8005 23.2682 27.7323 23.0052 27.7324H23.0004Z" fill="white"/>
<path d="M16.0496 28.3817L13.6822 26.0208C13.2757 25.616 12.7248 25.3887 12.1504 25.3887C11.576 25.3887 11.0251 25.616 10.6187 26.0208L8.14048 28.4898C7.93913 28.6905 7.77941 28.9288 7.67043 29.1911C7.56146 29.4534 7.50537 29.7345 7.50537 30.0185C7.50537 30.3024 7.56146 30.5835 7.67043 30.8458C7.77941 31.1081 7.93913 31.3464 8.14048 31.5471L10.5079 33.908C10.7092 34.1088 10.9482 34.2681 11.2112 34.3768C11.4742 34.4854 11.7561 34.5414 12.0408 34.5414C12.3256 34.5414 12.6075 34.4854 12.8705 34.3768C13.1335 34.2681 13.3725 34.1088 13.5738 33.908L16.0496 31.4391C16.2509 31.2383 16.4107 31 16.5196 30.7377C16.6286 30.4754 16.6847 30.1943 16.6847 29.9104C16.6847 29.6265 16.6286 29.3453 16.5196 29.083C16.4107 28.8207 16.2509 28.5824 16.0496 28.3817ZM15.7413 31.1316L14.1927 32.6711V32.0347C14.192 31.7228 14.0969 31.4184 13.9199 31.1613C13.7429 30.9042 13.4921 30.7063 13.2005 30.5937C12.888 30.8468 12.4976 30.985 12.095 30.985C11.6924 30.985 11.3021 30.8468 10.9896 30.5937C10.6982 30.7064 10.4478 30.9044 10.2712 31.1615C10.0945 31.4186 9.99993 31.723 9.99975 32.0347V32.724C9.99855 32.7448 9.99855 32.7656 9.99975 32.7864L8.44875 31.2301C8.12505 30.9056 7.94334 30.4666 7.94334 30.0089C7.94334 29.5512 8.12505 29.1121 8.44875 28.7876L10.927 26.3186C11.2516 25.9954 11.6917 25.8138 12.1504 25.8138C12.6092 25.8138 13.0492 25.9954 13.3739 26.3186L15.7413 28.6795C15.903 28.8404 16.0314 29.0315 16.1189 29.2419C16.2065 29.4522 16.2515 29.6778 16.2515 29.9056C16.2515 30.1334 16.2065 30.3589 16.1189 30.5693C16.0314 30.7797 15.903 30.9708 15.7413 31.1316Z" fill="white"/>
<path d="M12.0949 27.7333C11.6932 27.7333 11.3079 27.8925 11.0238 28.1758C10.7397 28.4591 10.5801 28.8433 10.5801 29.244C10.5799 29.4962 10.6446 29.7443 10.7679 29.9645C10.8139 30.0501 10.8688 30.1306 10.9317 30.2047C10.9638 30.2399 10.9975 30.2759 11.0329 30.3128C11.0666 30.3464 11.1027 30.3776 11.1388 30.4088C11.1749 30.44 11.2352 30.4785 11.2857 30.5121L11.3797 30.5673C11.4656 30.6137 11.556 30.6515 11.6494 30.6802C11.9404 30.7699 12.2519 30.7699 12.5429 30.6802C12.6362 30.6511 12.7265 30.6133 12.8126 30.5673L12.9066 30.5121C12.9571 30.4785 13.0053 30.4448 13.0511 30.4088C13.0888 30.3787 13.125 30.3466 13.1594 30.3128L13.2582 30.2047C13.3211 30.13 13.3767 30.0496 13.4244 29.9645C13.5507 29.7344 13.6147 29.4755 13.6102 29.2132C13.6057 28.9509 13.5327 28.6944 13.3986 28.4687C13.2644 28.2431 13.0737 28.0562 12.8451 27.9264C12.6165 27.7966 12.358 27.7284 12.0949 27.7285V27.7333Z" fill="white"/>
<path d="M37.8596 28.3809L35.4922 26.0201C35.2909 25.8193 35.0519 25.66 34.7889 25.5513C34.5259 25.4427 34.244 25.3867 33.9593 25.3867C33.6746 25.3867 33.3927 25.4427 33.1296 25.5513C32.8666 25.66 32.6276 25.8193 32.4263 26.0201L29.9505 28.489C29.7492 28.6897 29.5895 28.9281 29.4805 29.1904C29.3715 29.4527 29.3154 29.7338 29.3154 30.0177C29.3154 30.3016 29.3715 30.5828 29.4805 30.8451C29.5895 31.1073 29.7492 31.3457 29.9505 31.5464L32.318 33.9073C32.7244 34.3121 33.2753 34.5394 33.8497 34.5394C34.4241 34.5394 34.975 34.3121 35.3814 33.9073L37.8596 31.4383C38.061 31.2376 38.2207 30.9993 38.3297 30.737C38.4387 30.4747 38.4948 30.1935 38.4948 29.9096C38.4948 29.6257 38.4387 29.3446 38.3297 29.0823C38.2207 28.82 38.061 28.5817 37.8596 28.3809ZM37.5514 31.1309L36.0004 32.6704V32.0339C36.0002 31.7223 35.9056 31.4179 35.729 31.1608C35.5523 30.9036 35.3019 30.7057 35.0105 30.5929C34.698 30.8461 34.3077 30.9842 33.9051 30.9842C33.5025 30.9842 33.1121 30.8461 32.7996 30.5929C32.5078 30.7053 32.2569 30.9031 32.0798 31.1602C31.9027 31.4174 31.8078 31.722 31.8074 32.0339V32.7232C31.8062 32.744 31.8062 32.7649 31.8074 32.7857L30.2588 31.2294C29.9351 30.9049 29.7534 30.4658 29.7534 30.0081C29.7534 29.5504 29.9351 29.1113 30.2588 28.7868L32.7346 26.3179C33.06 25.9951 33.5003 25.8139 33.9593 25.8139C34.4183 25.8139 34.8586 25.9951 35.1839 26.3179L37.5514 28.6788C37.7131 28.8396 37.8414 29.0307 37.929 29.2411C38.0165 29.4515 38.0616 29.677 38.0616 29.9048C38.0616 30.1326 38.0165 30.3582 37.929 30.5686C37.8414 30.7789 37.7131 30.97 37.5514 31.1309Z" fill="white"/>
<path d="M33.9051 27.7324C33.6421 27.7323 33.3835 27.8005 33.155 27.9303C32.9264 28.0601 32.7356 28.247 32.6015 28.4726C32.4673 28.6983 32.3944 28.9548 32.3899 29.2171C32.3853 29.4794 32.4494 29.7383 32.5757 29.9684C32.6233 30.0535 32.679 30.1339 32.7419 30.2086L32.8406 30.3167C32.875 30.3505 32.9112 30.3826 32.949 30.4127C32.9961 30.4496 33.0452 30.4841 33.0959 30.516C33.126 30.5363 33.1574 30.5548 33.1898 30.5712C33.2758 30.6176 33.3661 30.6554 33.4595 30.6841C33.6039 30.7286 33.754 30.7513 33.9051 30.7514C34.0569 30.7513 34.2079 30.7286 34.3531 30.6841C34.4457 30.6554 34.5353 30.6176 34.6204 30.5712C34.6528 30.5548 34.6842 30.5363 34.7143 30.516C34.7649 30.4824 34.8155 30.4487 34.8612 30.4127C34.907 30.3767 34.9335 30.3503 34.9672 30.3167C35.0009 30.283 35.037 30.2446 35.0683 30.2086C35.1312 30.1345 35.1861 30.054 35.2321 29.9684C35.3555 29.7482 35.4202 29.5001 35.42 29.2479C35.4206 29.0491 35.3819 28.8522 35.306 28.6683C35.2302 28.4845 35.1187 28.3174 34.978 28.1766C34.8372 28.0358 34.67 27.9241 34.4859 27.8479C34.3018 27.7717 34.1044 27.7324 33.9051 27.7324Z" fill="white"/>
<path d="M13.8413 22.7324H32.1594" stroke="white" stroke-width="1.5" stroke-linecap="round" stroke-linejoin="round"/>
<path d="M13.8413 22.7324V23.818" stroke="white" stroke-width="1.5" stroke-linecap="round" stroke-linejoin="round"/>
<path d="M23.2197 21.209V23.8172" stroke="white" stroke-width="1.5" stroke-linecap="round" stroke-linejoin="round"/>
<path d="M32.1597 22.7324V23.818" stroke="white" stroke-width="1.5" stroke-linecap="round" stroke-linejoin="round"/>
</svg>
