<svg width="206" height="47" viewBox="0 0 206 47" fill="none" xmlns="http://www.w3.org/2000/svg">
<path d="M23 46.8468C35.7025 46.8468 46 36.5608 46 23.8724C46 11.184 35.7025 0.897949 23 0.897949C10.2975 0.897949 0 11.184 0 23.8724C0 36.5608 10.2975 46.8468 23 46.8468Z" fill="#FA6900"/>
<path d="M21.502 14.8513L19.1346 12.4865C18.9333 12.2853 18.6943 12.1258 18.4313 12.0169C18.1683 11.9081 17.8864 11.8521 17.6017 11.8521C17.317 11.8521 17.0351 11.9081 16.772 12.0169C16.509 12.1258 16.27 12.2853 16.0687 12.4865L13.5929 14.9595C13.3916 15.1606 13.2319 15.3993 13.1229 15.662C13.0139 15.9247 12.9578 16.2064 12.9578 16.4907C12.9578 16.7751 13.0139 17.0567 13.1229 17.3195C13.2319 17.5822 13.3916 17.8209 13.5929 18.022L15.9604 20.3844C16.1616 20.5855 16.4006 20.745 16.6637 20.8539C16.9267 20.9627 17.2086 21.0188 17.4933 21.0188C17.778 21.0188 18.0599 20.9627 18.3229 20.8539C18.586 20.745 18.8249 20.5855 19.0262 20.3844L21.502 17.9113C21.9079 17.5053 22.1359 16.955 22.1359 16.3813C22.1359 15.8075 21.9079 15.2572 21.502 14.8513ZM21.1938 17.6034L19.6452 19.1526V18.5151C19.6451 18.2026 19.5503 17.8974 19.3732 17.6397C19.1961 17.382 18.945 17.184 18.6529 17.0717C18.3404 17.3253 17.9501 17.4637 17.5475 17.4637C17.1449 17.4637 16.7545 17.3253 16.442 17.0717C16.15 17.184 15.8989 17.382 15.7218 17.6397C15.5447 17.8974 15.4498 18.2026 15.4498 18.5151V19.2056C15.4485 19.2256 15.4485 19.2457 15.4498 19.2657L13.894 17.7116C13.5698 17.3873 13.3878 16.9478 13.3878 16.4895C13.3878 16.0313 13.5698 15.5917 13.894 15.2674L16.377 12.7944C16.5377 12.6334 16.7285 12.5057 16.9387 12.4186C17.1488 12.3314 17.3741 12.2865 17.6017 12.2865C17.8292 12.2865 18.0545 12.3314 18.2647 12.4186C18.4748 12.5057 18.6657 12.6334 18.8263 12.7944L21.1938 15.1592C21.5179 15.4835 21.7 15.923 21.7 16.3813C21.7 16.8395 21.5179 17.2791 21.1938 17.6034Z" fill="white"/>
<path d="M17.5475 14.2008C17.2584 14.1978 16.9746 14.2777 16.7297 14.431C16.4848 14.5844 16.2891 14.8047 16.1658 15.0659C16.0426 15.3271 15.997 15.6181 16.0344 15.9044C16.0718 16.1907 16.1907 16.4602 16.377 16.681C16.4082 16.7194 16.442 16.7556 16.4781 16.7893C16.5119 16.823 16.548 16.8542 16.5841 16.8855C16.6305 16.9235 16.6796 16.9581 16.731 16.989L16.8249 17.0467C16.911 17.0924 17.0013 17.1295 17.0947 17.1574C17.3857 17.2472 17.6972 17.2472 17.9882 17.1574C18.0814 17.129 18.1717 17.092 18.2579 17.0467L18.3519 16.989C18.4025 16.9581 18.4508 16.9235 18.4964 16.8855C18.5349 16.8542 18.5686 16.823 18.6047 16.7893C18.6395 16.7549 18.6725 16.7188 18.7035 16.681C18.8879 16.4609 19.0057 16.1928 19.0431 15.9081C19.0805 15.6235 19.036 15.3341 18.9147 15.0739C18.7934 14.8136 18.6003 14.5933 18.3582 14.4387C18.1161 14.284 17.8349 14.2015 17.5475 14.2008Z" fill="white"/>
<path d="M32.4072 14.8508L30.0398 12.486C29.8385 12.2848 29.5995 12.1253 29.3365 12.0164C29.0734 11.9076 28.7915 11.8516 28.5068 11.8516C28.2221 11.8516 27.9402 11.9076 27.6772 12.0164C27.4142 12.1253 27.1752 12.2848 26.9739 12.486L24.4981 14.959C24.2967 15.1601 24.137 15.3988 24.028 15.6615C23.9191 15.9243 23.863 16.2059 23.863 16.4903C23.863 16.7746 23.9191 17.0562 24.028 17.319C24.137 17.5817 24.2967 17.8204 24.4981 18.0215L26.8655 20.3839C27.0668 20.585 27.3058 20.7446 27.5688 20.8534C27.8318 20.9623 28.1137 21.0183 28.3984 21.0183C28.6832 21.0183 28.9651 20.9623 29.2281 20.8534C29.4911 20.7446 29.7301 20.585 29.9314 20.3839L32.4072 17.9084C32.8124 17.5026 33.0399 16.9528 33.0399 16.3796C33.0399 15.8064 32.8124 15.2566 32.4072 14.8508ZM32.0989 17.6029L30.5503 19.1522V18.5147C30.5503 18.2021 30.4555 17.8969 30.2783 17.6392C30.1012 17.3815 29.8501 17.1835 29.5581 17.0712C29.2456 17.3248 28.8552 17.4632 28.4526 17.4632C28.05 17.4632 27.6597 17.3248 27.3472 17.0712C27.0552 17.1835 26.8041 17.3815 26.6269 17.6392C26.4498 17.8969 26.355 18.2021 26.3549 18.5147V19.2051C26.3536 19.2251 26.3536 19.2452 26.3549 19.2652L24.8064 17.7112C24.4822 17.3868 24.3002 16.9473 24.3002 16.4891C24.3002 16.0308 24.4822 15.5913 24.8064 15.267L27.2822 12.7939C27.4428 12.6329 27.6337 12.5052 27.8438 12.4181C28.054 12.3309 28.2793 12.2861 28.5068 12.2861C28.7344 12.2861 28.9597 12.3309 29.1698 12.4181C29.38 12.5052 29.5708 12.6329 29.7315 12.7939L32.0989 15.1587C32.4231 15.483 32.6051 15.9225 32.6051 16.3808C32.6051 16.8391 32.4231 17.2786 32.0989 17.6029Z" fill="white"/>
<path d="M28.4527 14.2012C28.1642 14.1996 27.8814 14.2805 27.6376 14.4344C27.3937 14.5883 27.1991 14.8087 27.0768 15.0696C26.9544 15.3305 26.9094 15.621 26.9471 15.9066C26.9848 16.1923 27.1036 16.4612 27.2894 16.6815C27.3205 16.7192 27.3534 16.7554 27.3882 16.7897C27.4243 16.8234 27.458 16.8547 27.4965 16.886C27.5429 16.9239 27.592 16.9585 27.6434 16.9894L27.7374 17.0471C27.8234 17.0928 27.9138 17.1299 28.0071 17.1578C28.1514 17.2024 28.3016 17.2251 28.4527 17.2252C28.6045 17.2251 28.7555 17.2024 28.9006 17.1578C28.9938 17.1295 29.0841 17.0924 29.1704 17.0471L29.2619 16.9894C29.3133 16.9585 29.3624 16.9239 29.4088 16.886C29.4458 16.8558 29.4811 16.8236 29.5148 16.7897C29.5509 16.756 29.5847 16.7198 29.6159 16.6815C29.8007 16.4608 29.9186 16.1921 29.9558 15.9068C29.9929 15.6215 29.9477 15.3316 29.8256 15.0711C29.7034 14.8105 29.5093 14.5903 29.2661 14.4362C29.0229 14.2821 28.7407 14.2006 28.4527 14.2012Z" fill="white"/>
<path d="M26.9546 28.3566L24.5872 25.9918C24.3859 25.7907 24.1469 25.6312 23.8839 25.5223C23.6209 25.4134 23.339 25.3574 23.0542 25.3574C22.7695 25.3574 22.4876 25.4134 22.2246 25.5223C21.9616 25.6312 21.7226 25.7907 21.5213 25.9918L19.0455 28.4649C18.8442 28.6659 18.6844 28.9047 18.5755 29.1674C18.4665 29.4301 18.4104 29.7117 18.4104 29.9961C18.4104 30.2805 18.4665 30.5621 18.5755 30.8248C18.6844 31.0876 18.8442 31.3263 19.0455 31.5273L21.4129 33.8922C21.6142 34.0933 21.8532 34.2528 22.1162 34.3617C22.3793 34.4705 22.6612 34.5266 22.9459 34.5266C23.2306 34.5266 23.5125 34.4705 23.7755 34.3617C24.0385 34.2528 24.2775 34.0933 24.4788 33.8922L26.9546 31.4191C27.156 31.218 27.3157 30.9793 27.4247 30.7166C27.5336 30.4539 27.5897 30.1722 27.5897 29.8879C27.5897 29.6035 27.5336 29.3219 27.4247 29.0591C27.3157 28.7964 27.156 28.5577 26.9546 28.3566ZM26.6463 31.1112L25.0978 32.6532V32.0157C25.0971 31.7033 25.002 31.3984 24.8249 31.1408C24.6479 30.8833 24.3971 30.6851 24.1055 30.5723C23.793 30.8258 23.4027 30.9642 23.0001 30.9642C22.5975 30.9642 22.2071 30.8258 21.8946 30.5723C21.6028 30.6849 21.3519 30.8829 21.1748 31.1405C20.9977 31.3982 20.9027 31.7032 20.9024 32.0157V32.7061C20.9012 32.727 20.9012 32.7479 20.9024 32.7687L19.3538 31.2098C19.0301 30.8848 18.8484 30.445 18.8484 29.9865C18.8484 29.528 19.0301 29.0882 19.3538 28.7632L21.8296 26.2901C22.155 25.9668 22.5953 25.7853 23.0542 25.7853C23.5132 25.7853 23.9535 25.9668 24.2789 26.2901L26.6463 28.6549C26.8081 28.8161 26.9364 29.0075 27.0239 29.2182C27.1115 29.429 27.1566 29.6549 27.1566 29.8831C27.1566 30.1112 27.1115 30.3371 27.0239 30.5479C26.9364 30.7586 26.8081 30.95 26.6463 31.1112Z" fill="white"/>
<path d="M23 27.7075C22.7374 27.7083 22.4795 27.7772 22.2515 27.9075C22.0236 28.0379 21.8336 28.2252 21.7 28.451C21.5664 28.6769 21.4939 28.9336 21.4896 29.1959C21.4853 29.4582 21.5493 29.7171 21.6754 29.9472C21.7231 30.0325 21.7787 30.113 21.8416 30.1878L21.9403 30.2961L22.0487 30.3923C22.0945 30.4284 22.145 30.4621 22.1956 30.4957C22.2462 30.5294 22.2558 30.5342 22.2895 30.5511C22.3755 30.5975 22.4659 30.6354 22.5593 30.6641C22.7036 30.7087 22.8538 30.7314 23.0048 30.7315C23.1567 30.7314 23.3077 30.7087 23.4528 30.6641C23.5461 30.635 23.6364 30.5971 23.7225 30.5511L23.8165 30.4957C23.867 30.4621 23.9152 30.4284 23.961 30.3923C24.0067 30.3562 24.0332 30.3297 24.0693 30.2961L24.1681 30.1878C24.2309 30.113 24.2866 30.0325 24.3343 29.9472C24.4605 29.7168 24.5246 29.4574 24.5201 29.1947C24.5155 28.932 24.4426 28.675 24.3085 28.449C24.1743 28.223 23.9836 28.0357 23.755 27.9057C23.5264 27.7757 23.2679 27.7074 23.0048 27.7075H23Z" fill="white"/>
<path d="M16.0495 28.3564L13.682 25.9916C13.2756 25.5861 12.7247 25.3584 12.1503 25.3584C11.5759 25.3584 11.025 25.5861 10.6186 25.9916L8.14036 28.4647C7.93901 28.6657 7.77928 28.9044 7.67031 29.1672C7.56134 29.4299 7.50525 29.7115 7.50525 29.9959C7.50525 30.2803 7.56134 30.5619 7.67031 30.8246C7.77928 31.0873 7.93901 31.3261 8.14036 31.5271L10.5078 33.8919C10.7091 34.093 10.9481 34.2526 11.2111 34.3614C11.4741 34.4703 11.756 34.5263 12.0407 34.5263C12.3254 34.5263 12.6073 34.4703 12.8704 34.3614C13.1334 34.2526 13.3724 34.093 13.5737 33.8919L16.0495 31.4189C16.2508 31.2178 16.4105 30.9791 16.5195 30.7164C16.6285 30.4536 16.6846 30.172 16.6846 29.8876C16.6846 29.6032 16.6285 29.3216 16.5195 29.0589C16.4105 28.7962 16.2508 28.5575 16.0495 28.3564ZM15.7412 31.1109L14.1926 32.653V32.0155C14.1919 31.7031 14.0968 31.3981 13.9198 31.1406C13.7427 30.8831 13.492 30.6849 13.2004 30.5721C12.8879 30.8256 12.4975 30.964 12.0949 30.964C11.6923 30.964 11.302 30.8256 10.9895 30.5721C10.6981 30.685 10.4477 30.8833 10.271 31.1408C10.0944 31.3984 9.9998 31.7033 9.99962 32.0155V32.7059C9.99843 32.7267 9.99843 32.7476 9.99962 32.7685L8.44863 31.2096C8.12493 30.8845 7.94322 30.4447 7.94322 29.9863C7.94322 29.5278 8.12493 29.088 8.44863 28.763L10.9268 26.2899C11.2515 25.9661 11.6915 25.7843 12.1503 25.7843C12.6091 25.7843 13.0491 25.9661 13.3738 26.2899L15.7412 28.6547C15.9029 28.8158 16.0312 29.0072 16.1188 29.218C16.2063 29.4287 16.2514 29.6547 16.2514 29.8828C16.2514 30.111 16.2063 30.3369 16.1188 30.5477C16.0312 30.7584 15.9029 30.9498 15.7412 31.1109Z" fill="white"/>
<path d="M12.095 27.707C11.6932 27.707 11.3079 27.8664 11.0238 28.1502C10.7397 28.4339 10.5801 28.8188 10.5801 29.2202C10.5799 29.4728 10.6446 29.7213 10.768 29.9419C10.814 30.0276 10.8689 30.1082 10.9318 30.1824C10.9639 30.2177 10.9976 30.2538 11.0329 30.2907C11.0666 30.3244 11.1028 30.3556 11.1389 30.3869C11.175 30.4182 11.2352 30.4567 11.2858 30.4904L11.3797 30.5457C11.4657 30.5922 11.556 30.63 11.6495 30.6588C11.9405 30.7487 12.2519 30.7487 12.543 30.6588C12.6362 30.6296 12.7265 30.5918 12.8127 30.5457L12.9066 30.4904C12.9572 30.4567 13.0054 30.423 13.0511 30.3869C13.0889 30.3567 13.1251 30.3246 13.1595 30.2907L13.2583 30.1824C13.3211 30.1077 13.3768 30.0271 13.4244 29.9419C13.5507 29.7114 13.6148 29.452 13.6102 29.1893C13.6057 28.9266 13.5328 28.6696 13.3986 28.4436C13.2645 28.2176 13.0737 28.0304 12.8452 27.9004C12.6166 27.7704 12.358 27.702 12.095 27.7021V27.707Z" fill="white"/>
<path d="M37.8597 28.3566L35.4923 25.9918C35.291 25.7907 35.052 25.6312 34.789 25.5223C34.526 25.4134 34.244 25.3574 33.9593 25.3574C33.6746 25.3574 33.3927 25.4134 33.1297 25.5223C32.8667 25.6312 32.6277 25.7907 32.4264 25.9918L29.9506 28.4649C29.7492 28.6659 29.5895 28.9047 29.4806 29.1674C29.3716 29.4301 29.3155 29.7117 29.3155 29.9961C29.3155 30.2805 29.3716 30.5621 29.4806 30.8248C29.5895 31.0876 29.7492 31.3263 29.9506 31.5273L32.318 33.8922C32.7244 34.2976 33.2754 34.5254 33.8498 34.5254C34.4242 34.5254 34.9751 34.2976 35.3815 33.8922L37.8597 31.4191C38.0611 31.218 38.2208 30.9793 38.3298 30.7166C38.4387 30.4539 38.4948 30.1722 38.4948 29.8879C38.4948 29.6035 38.4387 29.3219 38.3298 29.0591C38.2208 28.7964 38.0611 28.5577 37.8597 28.3566ZM37.5514 31.1112L36.0004 32.6532V32.0157C36.0003 31.7035 35.9057 31.3986 35.729 31.1411C35.5524 30.8835 35.302 30.6852 35.0106 30.5723C34.6981 30.8258 34.3078 30.9642 33.9052 30.9642C33.5025 30.9642 33.1122 30.8258 32.7997 30.5723C32.5079 30.6849 32.2569 30.8829 32.0799 31.1405C31.9028 31.3981 31.8078 31.7032 31.8075 32.0157V32.7061C31.8063 32.727 31.8063 32.7479 31.8075 32.7687L30.2589 31.2098C29.9352 30.8848 29.7535 30.445 29.7535 29.9865C29.7535 29.528 29.9352 29.0882 30.2589 28.7632L32.7347 26.2901C33.0601 25.9668 33.5004 25.7853 33.9593 25.7853C34.4183 25.7853 34.8586 25.9668 35.184 26.2901L37.5514 28.6549C37.7132 28.8161 37.8415 29.0075 37.929 29.2182C38.0166 29.429 38.0617 29.6549 38.0617 29.883C38.0617 30.1112 38.0166 30.3371 37.929 30.5479C37.8415 30.7586 37.7132 30.95 37.5514 31.1112Z" fill="white"/>
<path d="M33.9052 27.7075C33.6421 27.7074 33.3836 27.7757 33.155 27.9057C32.9264 28.0357 32.7357 28.223 32.6015 28.449C32.4674 28.675 32.3945 28.932 32.3899 29.1947C32.3854 29.4574 32.4494 29.7168 32.5757 29.9472C32.6234 30.0325 32.679 30.113 32.7419 30.1878L32.8407 30.2961C32.8751 30.33 32.9113 30.3621 32.949 30.3923C32.9962 30.4292 33.0452 30.4638 33.0959 30.4957C33.1261 30.5161 33.1574 30.5346 33.1899 30.5511C33.2758 30.5975 33.3662 30.6354 33.4596 30.6641C33.6039 30.7087 33.7541 30.7314 33.9052 30.7315C34.057 30.7314 34.208 30.7087 34.3531 30.6641C34.4458 30.6354 34.5353 30.5975 34.6204 30.5511C34.6529 30.5346 34.6842 30.5161 34.7144 30.4957C34.765 30.4621 34.8155 30.4284 34.8613 30.3923C34.907 30.3562 34.9335 30.3297 34.9673 30.2961C35.001 30.2624 35.0371 30.2239 35.0684 30.1878C35.1313 30.1136 35.1862 30.0329 35.2322 29.9472C35.3556 29.7267 35.4202 29.4782 35.42 29.2255C35.4207 29.0264 35.3819 28.8291 35.3061 28.645C35.2303 28.4608 35.1188 28.2934 34.978 28.1524C34.8373 28.0114 34.6701 27.8995 34.486 27.8232C34.3019 27.7468 34.1045 27.7075 33.9052 27.7075Z" fill="white"/>
<path d="M13.841 22.6982H32.1591" stroke="white" stroke-width="1.5" stroke-linecap="round" stroke-linejoin="round"/>
<path d="M13.841 22.6982V23.7856" stroke="white" stroke-width="1.5" stroke-linecap="round" stroke-linejoin="round"/>
<path d="M23.2192 21.1729V23.7854" stroke="white" stroke-width="1.5" stroke-linecap="round" stroke-linejoin="round"/>
<path d="M32.1591 22.6982V23.7856" stroke="white" stroke-width="1.5" stroke-linecap="round" stroke-linejoin="round"/>
<path d="M55.0273 19.1557L57.6982 19.361C57.5776 20.3871 57.3852 21.6901 57.121 23.2701H57.165C58.0931 22.6291 59.1099 22.127 60.1833 21.7797C61.1874 21.4489 62.2372 21.2774 63.2945 21.2715C65.3328 21.2715 66.8363 21.6722 67.8048 22.4736C68.7734 23.275 69.2626 24.495 69.2724 26.1335C69.2981 26.9809 69.0984 27.8199 68.6936 28.565C68.2889 29.3101 67.6935 29.9346 66.9683 30.375C65.4388 31.375 63.213 31.8767 60.2909 31.88C58.712 31.8811 57.1343 31.793 55.5654 31.6161L55.7513 29.256C57.7537 29.4612 59.2669 29.5638 60.2909 29.5638C62.1841 29.5638 63.637 29.2609 64.6594 28.6501C65.1223 28.4127 65.5105 28.052 65.7807 27.6078C66.051 27.1636 66.1928 26.6533 66.1905 26.1335C66.1905 24.4526 65.0948 23.6121 62.9032 23.6121C61.0899 23.6121 58.9375 24.4412 56.4459 26.0993L54 25.5814C54.4109 23.2554 54.7533 21.1136 55.0273 19.1557ZM56.8764 15.2466C60.1214 15.6579 63.3892 15.8636 66.6601 15.8623V18.1931C63.2932 18.1942 59.9295 17.9885 56.5878 17.5774L56.8764 15.2466Z" fill="#290347"/>
<path d="M87.5093 14.2554L89.2214 16.3272C86.6124 18.2818 84.1861 19.9709 81.9423 21.3944C81.3976 21.7239 80.8703 22.0811 80.3623 22.4646C80.2626 22.53 80.179 22.6173 80.118 22.7197C80.057 22.8221 80.0201 22.9371 80.0101 23.0558C80.0145 23.1724 80.0444 23.2865 80.0977 23.3904C80.1509 23.4942 80.2262 23.5851 80.3182 23.6569C80.7753 24.0351 81.2556 24.3844 81.7564 24.7026C84.4502 26.5105 87.1359 28.514 89.8133 30.7129L87.9838 32.6674C85.215 30.4262 82.606 28.4716 80.1568 26.8037C79.1699 26.1809 78.2445 25.4659 77.3929 24.6684C77.0235 24.2185 76.8367 23.6465 76.8695 23.0656C76.8291 22.455 77.0272 21.8524 77.4223 21.3847C78.2862 20.6195 79.2216 19.9388 80.2155 19.3519C82.6941 17.7492 85.1253 16.0503 87.5093 14.2554Z" fill="#290347"/>
<path d="M100.228 19.1557L102.899 19.361C102.778 20.3871 102.586 21.6901 102.322 23.2701H102.366C103.29 22.6428 104.3 22.1523 105.365 21.8139C106.372 21.47 107.426 21.2869 108.491 21.2715C110.529 21.2715 112.032 21.6722 113.001 22.4736C113.969 23.275 114.459 24.495 114.468 26.1335C114.494 26.9809 114.294 27.8199 113.89 28.565C113.485 29.3101 112.89 29.9346 112.164 30.375C110.632 31.375 108.406 31.8767 105.487 31.88C103.908 31.8811 102.33 31.793 100.761 31.6161L100.962 29.256C102.964 29.4612 104.478 29.5638 105.502 29.5638C107.395 29.5638 108.848 29.2609 109.87 28.6501C110.333 28.4127 110.721 28.052 110.991 27.6078C111.262 27.1636 111.403 26.6533 111.401 26.1335C111.401 24.4526 110.305 23.6121 108.114 23.6121C106.281 23.6121 104.125 24.4412 101.647 26.0993L99.2009 25.5667C99.6118 23.2505 99.9542 21.1136 100.228 19.1557ZM102.077 15.2466C105.322 15.6579 108.59 15.8636 111.861 15.8623V18.1931C108.494 18.1942 105.13 17.9885 101.789 17.5774L102.077 15.2466Z" fill="#290347"/>
<path d="M132.71 14.2554L134.398 16.3272C131.821 18.2818 129.403 19.9709 127.143 21.3944C126.598 21.7239 126.071 22.0811 125.563 22.4646C125.463 22.53 125.38 22.6173 125.319 22.7197C125.258 22.8221 125.221 22.9371 125.211 23.0558C125.215 23.1724 125.245 23.2865 125.298 23.3904C125.352 23.4942 125.427 23.5851 125.519 23.6569C125.976 24.0351 126.456 24.3844 126.957 24.7026C129.644 26.5268 132.33 28.5384 135.014 30.7373L133.185 32.6919C130.416 30.4506 127.807 28.4961 125.358 26.8282C124.371 26.2054 123.445 25.4904 122.594 24.6928C122.224 24.243 122.037 23.6709 122.07 23.09C122.03 22.4794 122.228 21.8769 122.623 21.4091C123.487 20.6318 124.424 19.9396 125.421 19.3421C127.9 17.7459 130.329 16.0503 132.71 14.2554Z" fill="#290347"/>
<path d="M142.675 17.7194H145.429V14.1719H148.017V17.7194H150.052V20.0405H148.413C149.564 21.995 150.324 23.3079 150.692 23.9789V14.6947H160.824V32.5595H158.153V31.6164H153.261V32.5595H150.673V25.44L149.504 26.4417C149.119 25.6501 148.63 24.6728 148.036 23.5098V32.7647H145.429V24.7999C144.924 26.4131 144.168 27.9368 143.188 29.3149L141.872 26.774C143.327 24.746 144.385 22.4613 144.989 20.0405H142.665L142.675 17.7194ZM153.256 19.674H158.148V16.9425H153.256V19.674ZM153.256 21.8289V24.5604H158.148V21.824L153.256 21.8289ZM153.256 26.7153V29.4664H158.148V26.7105L153.256 26.7153Z" fill="#290347"/>
<path d="M164.703 18.5401L165.833 16.0969C166.131 16.5366 166.366 16.8738 166.528 17.1035C167.032 16.069 167.478 15.007 167.863 13.9224L169.962 14.6651C169.358 16.1245 168.667 17.5905 167.887 19.0629C167.927 19.1167 167.98 19.19 168.039 19.2877L168.205 19.532C168.249 19.6004 168.298 19.6688 168.338 19.7372C169.159 18.33 169.831 17.1197 170.353 16.1066L172.075 16.864V15.3981H176.478V13.8833H179.193V15.4225H183.815V17.597H179.193V18.7062H183.033V20.7781H172.76V18.7062H176.497V17.597H172.094V17.5139C171.615 18.4163 171.116 19.3138 170.598 20.2063L171.972 19.8545C172.163 20.524 172.334 21.1494 172.461 21.7211H183.537V26.2997H181.032V23.7734H174.418V26.5049H172.261V25.1221L171.419 25.3078C171.419 25.2524 171.395 25.1498 171.346 24.9999C171.312 24.8484 171.287 24.7361 171.278 24.653L170.084 24.7361V32.7645H167.516V24.9022L165.011 25.0879L164.928 22.7082L166.552 22.6251C166.606 22.5421 166.689 22.4199 166.797 22.244L167.041 21.8677C166.363 20.8579 165.583 19.7486 164.703 18.5401ZM164.703 31.494C165.034 29.6055 165.259 27.7001 165.378 25.7866L167.149 25.9283C167.038 27.8946 166.811 29.8527 166.469 31.7921L164.703 31.494ZM170.72 22.3808C170.642 22.0388 170.49 21.4768 170.27 20.695C170.187 20.8465 169.825 21.4377 169.179 22.4639L170.72 22.3808ZM171.586 30.9565L170.764 31.0396C170.71 29.5736 170.573 27.8438 170.353 25.8502L172.036 25.601C172.225 27.2298 172.377 28.8032 172.491 30.3212C173.316 29.8722 173.967 29.16 174.34 28.2983C174.722 27.116 174.888 25.8745 174.829 24.6334H177.358C177.39 25.9781 177.241 27.321 176.913 28.6257C176.672 29.5735 176.208 30.4499 175.558 31.1813C174.841 31.9136 173.986 32.498 173.044 32.9013L171.586 30.9565ZM178.058 24.6334H180.601V29.9548C180.601 30.16 180.626 30.2822 180.675 30.3212C180.822 30.3824 180.982 30.4043 181.14 30.3848C181.244 30.3902 181.347 30.3543 181.426 30.2849C181.504 30.2154 181.553 30.118 181.56 30.0134C181.604 29.7691 181.643 28.9188 181.673 27.4676L183.913 27.7754C183.913 28.4497 183.879 28.9726 183.859 29.3586C183.84 29.7447 183.806 30.1356 183.757 30.5363C183.708 30.9369 183.664 31.2301 183.625 31.4109C183.573 31.6108 183.489 31.8007 183.375 31.9729C183.293 32.1266 183.178 32.2601 183.038 32.3638C182.873 32.4487 182.697 32.5081 182.514 32.5397C182.291 32.5896 182.063 32.6206 181.834 32.6325H180.934C180.445 32.6325 180.054 32.6325 179.78 32.6325C179.517 32.6196 179.256 32.5803 179.002 32.5153C178.816 32.4842 178.64 32.4106 178.488 32.3003C178.366 32.1837 178.274 32.0396 178.219 31.88C178.137 31.6777 178.089 31.463 178.077 31.2448C178.077 31.02 178.077 30.7073 178.077 30.3115L178.058 24.6334Z" fill="#290347"/>
<path d="M190.752 31.9636V32.7845H188.125V14.4995H206V32.765H203.368V31.9636H190.752ZM190.977 24.1453L192.048 22.1517C193.748 22.7826 195.414 23.5019 197.038 24.3066C198.79 22.5256 200.254 20.4831 201.377 18.2523L203.368 19.2589V16.6544H197.615C198.3 17.7392 199.021 18.9836 199.778 20.3877L197.821 21.4578C197.148 20.1602 196.407 18.8993 195.6 17.6806L197.332 16.6544H190.752V29.8722H192.684L191.515 28.4356C192.815 27.7035 194.052 26.865 195.213 25.9289C193.717 25.2057 192.303 24.5981 190.972 24.1062L190.977 24.1453ZM192.048 18.9315L194.059 17.7588C194.908 19.0201 195.69 20.3249 196.402 21.6679L194.348 22.7967C193.654 21.4535 192.887 20.1501 192.048 18.8924V18.9315ZM199.176 25.4158C200.259 26.0315 201.519 26.8329 202.957 27.8199L201.49 29.7061C200.185 28.7695 198.833 27.9002 197.439 27.1016C196.261 28.1415 194.989 29.0691 193.638 29.8722H203.378V19.3859C202.304 21.6044 200.886 23.6395 199.176 25.4158Z" fill="#290347"/>
</svg>

